<svg xmlns="http://www.w3.org/2000/svg" viewBox="0 0 32 32">
  <rect width="32" height="32" rx="6" fill="#059669"/>
  <g transform="translate(3, 8)">
    <!-- Alligator body -->
    <path d="M2 8c0-1.5 1-3 2.5-3h16c3 0 5.5 1.5 5.5 4s-2.5 4-5.5 4h-16C3 13 2 11.5 2 10z" fill="#16a34a"/>
    <!-- Snout -->
    <path d="M20.5 9c0-1 1-2 2.5-2s3 0.5 3 1.5-1.5 1.5-3 1.5-2.5-1-2.5-1z" fill="#16a34a"/>
    <!-- Eye -->
    <circle cx="7" cy="7" r="1.5" fill="#ffffff"/>
    <circle cx="7" cy="7" r="0.8" fill="#000000"/>
    <!-- Teeth -->
    <path d="M20 10.5l0.5-1 0.5 1m1.5-1l0.5-1 0.5 1m1.5-1l0.5-1 0.5 1" stroke="#ffffff" stroke-width="0.5" fill="none"/>
    <!-- Scales/texture -->
    <circle cx="12" cy="8" r="0.5" fill="#059669"/>
    <circle cx="15" cy="7.5" r="0.5" fill="#059669"/>
    <circle cx="14" cy="9.5" r="0.5" fill="#059669"/>
    <circle cx="17" cy="8.5" r="0.5" fill="#059669"/>
    <!-- Legs -->
    <rect x="6" y="11" width="1.5" height="3" rx="0.5" fill="#16a34a"/>
    <rect x="9" y="11" width="1.5" height="3" rx="0.5" fill="#16a34a"/>
    <rect x="14" y="11" width="1.5" height="3" rx="0.5" fill="#16a34a"/>
    <rect x="17" y="11" width="1.5" height="3" rx="0.5" fill="#16a34a"/>
  </g>
</svg>